# xmcd CD database file
#
# Track frame offsets:
#	150
#	14352
#	27321
#	40122
#	52243
#	66582
#	80683
#	95137
#	106814
#	119618
#	130225
#	144219
#	159409
#	172538
#	187308
#	202348
#	218252
#	230072
#	245870
#	261359
#	274634
#	289559
#	303214
#	316637
#
# Disc length: 4380 seconds
#
# Revision: 0
# Processed by: cddbd v1.5.2PL0 Copyright (c) Steve Scherf et al.
# Submitted via: CDex 1.51
#
DISCID=62111a18
DTITLE=Hal Kemp and His Orchestra - Remember Me
DYEAR=2001
DGENRE=Jazz
TTITLE0=Shuffle Off To Buffalo
TTITLE1=When The Morning Rolls Around
TTITLE2=Hey, Young Fella
TTITLE3=Happy Times
TTITLE4=I've Got To Sing A Torch Song
TTITLE5=A Heart Of Stone
TTITLE6=Strange
TTITLE7=Got A Date With An Angel
TTITLE8=Hands Across The Table
TTITLE9=You're The Top
TTITLE10=Lullaby Of Broadway
TTITLE11=The Music Goes 'Round And Around
TTITLE12=It's The Natural Thing To Do
TTITLE13=Remember Me
TTITLE14=Lamplight
TTITLE15=Goodnight Angel
TTITLE16=I've Got A Pocketful Of Dreams
TTITLE17=Blue Moonlight
TTITLE18=Three Little Fishies
TTITLE19=If It's Good (Then I Want It)
TTITLE20=Love For Sale
TTITLE21=Let's Do It
TTITLE22=It All Comes Back To Me Now
TTITLE23=The Same Time, The Same Place - How I'll Miss You
EXTD=YEAR: 2001
EXTT0=
EXTT1=
EXTT2=
EXTT3=
EXTT4=
EXTT5=
EXTT6=
EXTT7=
EXTT8=
EXTT9=
EXTT10=
EXTT11=
EXTT12=
EXTT13=
EXTT14=
EXTT15=
EXTT16=
EXTT17=
EXTT18=
EXTT19=
EXTT20=
EXTT21=
EXTT22=
EXTT23=
PLAYORDER=
